<?xml version="1.0" standalone="no"?>
<!DOCTYPE svg PUBLIC "-//W3C//DTD SVG 20010904//EN"
 "http://www.w3.org/TR/2001/REC-SVG-20010904/DTD/svg10.dtd">
<svg version="1.0" xmlns="http://www.w3.org/2000/svg"
 width="219.000000pt" height="197.000000pt" viewBox="0 0 219.000000 197.000000"
 preserveAspectRatio="xMidYMid meet">

<g transform="translate(0.000000,197.000000) scale(0.100000,-0.100000)"
fill="#000000" stroke="none">
<path d="M1710 1589 c0 -5 5 -7 10 -4 6 3 10 8 10 11 0 2 -4 4 -10 4 -5 0 -10
-5 -10 -11z"/>
<path d="M1633 1564 c-22 -20 -24 -24 -8 -19 11 3 32 9 48 12 22 4 25 8 16 19
-16 19 -24 18 -56 -12z"/>
<path d="M930 1567 c-37 -19 -50 -54 -49 -130 2 -54 5 -67 16 -62 8 3 16 5 18
5 2 0 1 14 -2 31 -3 23 -1 30 9 27 8 -3 12 -16 10 -31 -3 -21 1 -27 16 -27 11
0 25 -7 32 -15 7 -8 19 -15 26 -15 18 0 18 -10 -2 -38 -8 -12 -24 -22 -34 -22
-10 0 -22 -4 -25 -10 -3 -5 -21 -17 -40 -26 -39 -18 -41 -26 -21 -75 8 -19 11
-49 8 -69 -4 -29 -6 -32 -13 -15 -6 16 -8 12 -8 -16 -1 -20 -4 -72 -7 -115 -6
-75 -6 -78 11 -62 18 17 30 128 13 128 -4 0 -8 5 -8 10 0 6 7 10 15 10 8 0 15
-9 15 -20 0 -13 7 -20 20 -20 10 0 24 -8 29 -18 6 -9 11 -13 11 -8 0 18 30
-17 30 -36 0 -16 -5 -19 -29 -13 -23 5 -32 2 -45 -17 -9 -12 -16 -33 -16 -46
0 -21 -4 -23 -25 -18 -23 6 -25 4 -25 -26 0 -25 3 -29 10 -18 5 8 10 10 10 4
0 -6 -7 -17 -15 -24 -10 -8 -13 -20 -9 -34 4 -12 7 -29 6 -39 0 -11 11 -30 26
-43 19 -16 22 -23 11 -24 -8 0 -20 5 -27 12 -9 9 -12 -15 -12 -110 0 -100 3
-124 15 -128 20 -8 19 -24 -1 -24 -8 0 -12 -4 -9 -10 10 -16 23 -12 30 11 5
16 10 18 21 8 10 -8 14 -8 14 0 0 10 -14 15 -23 9 -6 -5 -37 24 -37 33 0 12
72 -18 82 -34 4 -6 3 -17 -3 -23 -10 -13 91 -31 209 -38 34 -2 69 -10 77 -16
22 -18 91 1 87 23 -2 11 4 17 17 17 26 0 34 38 33 167 0 65 4 103 10 103 10 0
-41 45 -52 45 -13 1 -30 17 -25 26 9 13 32 11 48 -6 20 -19 27 -9 27 36 l0 37
-37 -19 c-38 -20 -38 -20 -41 1 -2 12 -10 24 -18 27 -12 4 -8 13 17 39 38 40
54 42 64 12 6 -19 9 -14 16 27 4 27 7 51 5 52 -2 2 -25 -17 -52 -42 -27 -24
-52 -45 -56 -45 -3 0 -9 13 -13 28 -3 15 -17 41 -31 57 -14 17 -28 42 -31 57
-6 29 -27 38 -36 16 -4 -8 -6 -7 -6 3 -1 9 -8 20 -17 23 -15 6 -15 4 -3 -11
13 -15 12 -16 -8 -11 -18 5 -22 1 -25 -28 -2 -19 0 -35 5 -37 14 -4 -1 -44
-19 -51 -23 -9 -50 9 -63 42 -19 46 0 102 49 141 32 26 39 36 30 46 -6 8 -19
11 -28 8 -9 -3 -24 -7 -32 -9 -13 -4 -13 -6 0 -14 12 -8 11 -13 -7 -37 -12
-17 -28 -27 -39 -25 -11 2 -25 4 -32 4 -8 1 -7 7 5 20 15 16 15 18 0 18 -9 0
-24 -12 -32 -27 -9 -16 -14 -20 -11 -10 3 10 6 27 6 38 0 13 7 19 23 19 12 0
44 11 70 24 54 26 93 24 100 -5 3 -11 14 -19 25 -19 12 0 24 -4 27 -10 14 -23
55 -9 98 35 25 25 50 45 56 45 6 0 11 9 11 20 0 10 9 24 20 30 11 6 20 20 20
32 0 17 -2 18 -15 8 -8 -7 -15 -9 -15 -4 0 4 -6 0 -13 -10 -8 -11 -31 -20 -59
-23 -72 -8 -125 38 -141 124 -4 20 -2 33 6 37 7 2 5 5 -4 5 -9 1 -19 12 -21
26 -6 30 11 34 19 5 6 -21 33 -28 33 -8 0 6 -10 22 -22 35 l-21 23 22 0 c20 0
22 2 10 16 -11 14 -21 7 -77 -55 -35 -39 -67 -71 -70 -71 -4 0 -14 5 -22 10
-13 9 -11 14 11 33 45 39 68 79 58 105 -10 27 6 37 51 30 20 -3 30 0 30 8 0 8
-19 12 -61 13 -34 0 -67 5 -72 10 -15 15 -56 14 -87 -2z m65 -57 c11 -17 -5
-32 -21 -19 -7 6 -11 15 -8 20 7 12 21 11 29 -1z m122 -101 c1 -15 -2 -19 -13
-15 -10 4 -14 1 -11 -6 2 -7 10 -13 18 -12 8 1 15 -10 16 -26 2 -24 -1 -26
-26 -22 -15 2 -28 9 -28 15 0 7 -2 17 -4 23 -4 10 31 64 41 64 3 0 6 -9 7 -21z
m-15 -119 l33 -8 -32 -1 c-18 -1 -33 -6 -33 -12 0 -5 -4 -7 -10 -4 -5 3 -18 1
-27 -4 -14 -8 -9 -10 25 -11 23 0 42 -4 42 -10 0 -19 2 -25 12 -37 7 -9 2 -14
-18 -19 -20 -5 -31 -2 -42 12 -13 18 -14 17 -7 -6 4 -14 4 -22 0 -18 -7 7 -42
-21 -38 -31 3 -10 -40 -30 -64 -31 -13 0 -23 5 -23 11 0 6 6 9 14 6 20 -8 28
18 14 48 -12 28 -19 30 -35 14 -7 -7 -12 -6 -16 5 -8 20 17 38 59 42 39 3 57
14 35 22 -10 3 -4 14 20 37 29 27 36 29 46 17 7 -8 27 -18 45 -22z m239 -78
c-5 -10 -17 -24 -25 -32 -13 -10 -16 -10 -16 3 0 9 10 23 22 31 29 20 31 20
19 -2z m-110 -2 c5 0 9 -9 9 -20 0 -15 -7 -20 -24 -20 -14 0 -27 4 -30 9 -10
16 6 42 21 37 8 -3 19 -6 24 -6z m-61 -250 c26 -20 21 -24 -17 -14 -13 4 -23
13 -23 20 0 19 10 17 40 -6z m-140 -69 c0 -6 14 -18 30 -28 18 -10 30 -26 30
-38 0 -12 6 -27 13 -34 10 -11 9 -13 -6 -7 -10 3 -22 6 -27 6 -5 0 -7 11 -5
25 2 20 -5 29 -31 41 -34 16 -40 25 -27 37 9 10 23 8 23 -2z m180 -10 c0 -18
-18 -21 -30 -6 -10 13 -9 15 9 15 11 0 21 -4 21 -9z m-164 -62 c3 -5 -6 -9
-20 -9 -16 0 -26 6 -26 14 0 15 36 11 46 -5z m-60 -66 c7 -3 11 -9 8 -14 -3
-5 -10 -7 -15 -3 -5 3 -8 0 -7 -7 2 -6 -2 -13 -9 -16 -7 -3 -14 12 -18 41 -4
27 -14 48 -24 52 -12 5 -9 9 14 13 28 6 30 4 33 -27 2 -18 10 -36 18 -39z
m267 -14 c26 -9 28 -13 13 -16 -10 -3 -22 1 -26 7 -4 7 -13 10 -18 6 -6 -4
-16 2 -21 13 -8 14 -8 21 2 24 6 2 13 -2 15 -9 2 -7 18 -18 35 -25z m-190 15
c9 -3 12 -14 9 -31 l-5 -26 -13 24 c-21 37 -19 44 9 33z m184 -64 c20 0 63
-30 63 -45 0 -8 -8 -11 -20 -8 -16 4 -21 -1 -26 -27 -4 -17 -17 -38 -30 -47
-13 -8 -21 -19 -18 -24 3 -5 0 -9 -5 -9 -6 0 -11 10 -11 22 0 40 -22 148 -29
143 -9 -5 -7 -77 4 -123 5 -25 3 -38 -11 -53 -10 -11 -12 -19 -5 -19 8 0 7 -9
-4 -30 -12 -23 -13 -35 -5 -50 7 -14 7 -20 0 -20 -5 0 -10 6 -10 14 0 11 -9
13 -37 9 -33 -6 -36 -4 -25 9 9 12 10 23 2 43 -11 30 -6 45 16 45 23 0 74 29
74 42 0 6 -9 3 -20 -7 -30 -27 -79 -24 -106 8 -14 17 -29 25 -38 21 -9 -3 -16
-2 -16 2 0 5 19 15 42 22 23 7 57 20 75 27 34 14 34 15 17 40 -16 25 -16 27 1
43 13 13 19 14 22 5 3 -7 9 -13 15 -13 6 0 8 6 5 14 -11 28 7 26 36 -4 16 -16
36 -30 44 -30z m-345 18 c-7 -7 -12 -8 -12 -2 0 14 12 26 19 19 2 -3 -1 -11
-7 -17z m442 -105 c4 -10 4 -14 0 -10 -4 4 -13 2 -21 -4 -10 -9 -13 -7 -13 10
0 25 25 28 34 4z m-374 -46 c0 -7 -9 -13 -20 -14 -11 -1 -20 4 -20 13 0 8 9
14 20 14 11 0 20 -6 20 -13z m90 -66 c13 -25 13 -42 -1 -18 -5 9 -13 17 -17
17 -15 0 -11 -45 5 -62 14 -16 14 -18 -1 -24 -30 -11 -49 4 -42 34 6 25 5 25
-8 9 -10 -13 -16 -15 -21 -7 -4 7 7 24 26 40 41 35 45 36 59 11z m187 -92
c-11 -32 -15 -35 -35 -28 -25 9 -21 29 5 29 10 0 14 6 10 20 -3 10 0 21 7 23
21 8 25 -8 13 -44z m85 19 c-7 -7 -12 -8 -12 -2 0 14 12 26 19 19 2 -3 -1 -11
-7 -17z"/>
<path d="M476 1555 c-21 -16 -17 -19 45 -29 19 -4 46 -16 58 -27 27 -25 35
-20 22 14 -16 42 -90 67 -125 42z"/>
<path d="M1265 1559 c-9 -14 -3 -18 32 -23 17 -2 45 -13 62 -25 39 -28 40 -9
2 30 -30 30 -83 40 -96 18z"/>
<path d="M162 1540 c-12 -5 -30 -6 -40 -3 -15 6 -15 5 -3 -11 11 -13 11 -20 3
-28 -9 -9 -12 -9 -12 2 0 7 -3 10 -6 7 -4 -4 -1 -14 7 -24 9 -11 10 -14 2 -9
-8 4 -13 1 -13 -8 0 -9 4 -16 8 -16 4 0 8 -24 7 -52 0 -29 4 -56 10 -60 6 -5
6 -8 -2 -8 -17 0 -17 -57 0 -64 10 -5 10 -7 0 -12 -7 -3 -13 -10 -13 -15 0 -6
5 -7 10 -4 6 3 10 1 10 -4 0 -6 -4 -11 -10 -11 -5 0 -10 -7 -10 -16 0 -8 5
-12 10 -9 6 3 10 1 10 -4 0 -6 -4 -11 -10 -11 -6 0 -10 -28 -10 -65 0 -45 -4
-65 -12 -65 -10 0 -10 -2 0 -9 7 -4 17 -21 22 -37 l8 -29 1 28 c1 16 5 26 10
23 8 -5 24 38 25 69 1 9 7 10 39 7 26 -4 49 -67 45 -126 -2 -40 1 -56 10 -56
11 0 18 59 14 113 -2 17 3 18 40 11 24 -5 56 -8 72 -7 26 0 27 -1 13 -12 -25
-18 -21 -26 9 -19 26 7 26 6 22 -35 -3 -37 -1 -41 18 -41 29 0 35 20 21 65
-10 34 -9 39 12 57 30 23 46 19 46 -13 0 -31 4 -33 38 -18 19 9 26 18 22 30
-3 9 -1 20 5 24 5 3 10 0 10 -8 0 -8 6 -20 14 -26 11 -10 15 0 19 56 2 38 7
79 11 92 3 15 0 31 -9 41 -7 8 -18 44 -24 79 -13 77 -26 96 -36 49 -9 -44 -28
-88 -38 -88 -4 0 -13 -14 -19 -30 -5 -17 -16 -29 -23 -28 -8 2 -21 -6 -29 -17
-31 -42 -165 -11 -153 36 3 11 1 16 -4 13 -6 -3 -17 -3 -27 1 -14 5 -14 7 -2
15 11 7 12 10 2 10 -9 0 -11 7 -7 19 3 11 -1 25 -9 34 -14 13 -14 16 0 21 9 3
14 13 11 20 -3 8 1 20 9 26 17 15 18 52 2 68 -24 24 -18 48 15 65 l32 16 -40
0 c-22 1 -56 3 -75 6 -19 3 -45 0 -58 -5z m108 -54 c0 -3 -4 -8 -10 -11 -5 -3
-10 -1 -10 4 0 6 5 11 10 11 6 0 10 -2 10 -4z m-93 -198 c-3 -8 -6 -5 -6 6 -1
11 2 17 5 13 3 -3 4 -12 1 -19z"/>
<path d="M81 1531 c-8 -5 -9 -11 -3 -15 5 -3 12 1 16 9 6 17 6 18 -13 6z"/>
<path d="M1214 1499 c-19 -22 -19 -22 1 -11 11 6 27 16 35 22 13 8 13 10 -1
10 -9 0 -24 -10 -35 -21z"/>
<path d="M1285 1500 c-8 -13 4 -32 16 -25 5 4 9 1 9 -6 0 -6 7 -17 16 -24 9
-6 17 -25 18 -43 1 -17 7 -37 14 -44 6 -6 12 -26 12 -42 1 -24 3 -27 10 -15 5
8 5 31 1 51 -5 22 -5 40 1 46 5 5 8 20 5 33 l-4 24 -8 -22 c-11 -34 -25 -28
-25 12 0 23 -5 35 -14 35 -8 0 -16 7 -20 15 -6 17 -22 20 -31 5z"/>
<path d="M1199 1466 c-1 0 -3 -11 -4 -23 -2 -21 -1 -21 24 -5 14 9 27 17 29
18 2 1 -9 4 -23 6 -14 3 -26 5 -26 4z"/>
<path d="M1260 1460 c0 -6 7 -10 15 -10 8 0 15 2 15 4 0 2 -7 6 -15 10 -8 3
-15 1 -15 -4z"/>
<path d="M1230 1431 c0 -6 5 -13 10 -16 6 -3 10 -15 10 -25 0 -13 9 -22 25
-26 37 -9 38 -2 4 39 -30 36 -49 47 -49 28z"/>
<path d="M365 1393 c-46 -12 -71 -73 -37 -92 9 -6 11 -11 5 -11 -7 0 -13 -4
-13 -8 0 -5 22 -9 49 -9 65 -1 94 26 88 82 -4 35 -6 38 -38 40 -19 2 -43 0
-54 -2z m75 -17 c0 -3 -4 -8 -10 -11 -5 -3 -10 -1 -10 4 0 6 5 11 10 11 6 0
10 -2 10 -4z"/>
<path d="M1196 1385 c-3 -9 0 -15 9 -15 8 0 15 7 15 15 0 8 -4 15 -9 15 -5 0
-11 -7 -15 -15z"/>
<path d="M1996 1374 c-5 -12 -2 -15 10 -10 8 3 18 6 20 6 3 0 2 5 -1 10 -9 15
-22 12 -29 -6z"/>
<path d="M1377 1143 c-2 -5 -10 -32 -17 -61 -12 -53 -24 -70 -34 -53 -4 5 -2
12 4 16 5 3 10 24 10 46 0 29 -4 39 -16 39 -14 0 -14 -2 -3 -16 11 -14 10 -16
-11 -13 -29 4 -50 -7 -50 -24 0 -8 3 -8 9 2 6 9 11 10 15 2 4 -6 2 -11 -3 -11
-18 0 -12 -18 7 -24 10 -3 26 -20 36 -37 13 -22 21 -27 26 -19 4 7 13 9 19 6
6 -4 11 0 12 11 0 10 2 46 3 81 3 60 2 70 -7 55z"/>
<path d="M1115 1080 c3 -5 8 -10 11 -10 2 0 4 5 4 10 0 6 -5 10 -11 10 -5 0
-7 -4 -4 -10z"/>
<path d="M1165 1063 c-11 -2 -31 -6 -44 -9 -13 -3 -21 -8 -17 -11 10 -10 56
-12 56 -2 0 5 6 9 14 9 8 0 18 5 21 10 6 10 4 11 -30 3z"/>
<path d="M1610 1045 c0 -18 5 -25 20 -25 11 0 20 3 20 8 0 4 -9 15 -20 25 -19
16 -20 16 -20 -8z"/>
<path d="M1215 1051 c-10 -17 2 -28 30 -28 19 0 25 4 23 16 -4 18 -43 27 -53
12z"/>
<path d="M905 980 c-8 -13 3 -30 21 -30 18 0 18 14 0 29 -10 8 -16 9 -21 1z"/>
<path d="M1616 983 c-10 -10 -7 -63 4 -63 6 0 10 6 10 14 0 8 6 16 13 18 9 2
8 7 -4 20 -10 9 -20 14 -23 11z"/>
<path d="M1230 964 c0 -12 7 -25 16 -28 25 -10 27 -1 5 25 -20 24 -20 24 -21
3z"/>
<path d="M1980 970 c8 -5 22 -10 30 -10 13 0 13 1 0 10 -8 5 -22 10 -30 10
-13 0 -13 -1 0 -10z"/>
<path d="M615 950 c-3 -5 -1 -10 4 -10 6 0 11 5 11 10 0 6 -2 10 -4 10 -3 0
-8 -4 -11 -10z"/>
<path d="M152 939 c3 -8 20 -15 39 -17 36 -2 26 9 -20 23 -17 5 -22 4 -19 -6z"/>
<path d="M582 912 c-19 -13 -29 -13 -56 -4 -40 15 -66 15 -66 2 0 -5 5 -10 12
-10 6 0 3 -9 -7 -20 -20 -22 -55 -26 -87 -9 -21 11 -20 12 13 30 19 10 27 18
18 19 -8 0 -24 -7 -35 -15 -24 -18 -68 -19 -83 -1 -7 8 -20 12 -29 9 -17 -4
-19 -17 -13 -70 0 -6 22 -27 49 -46 45 -33 73 -40 99 -24 6 4 24 0 39 -8 16
-8 23 -15 17 -15 -7 0 -13 -5 -13 -11 0 -5 6 -7 13 -3 9 5 9 3 -1 -7 -11 -12
-16 -10 -33 11 l-20 25 4 -45 5 -45 -23 29 c-16 20 -24 24 -28 15 -3 -8 -6 -5
-6 8 l-1 22 -25 -24 c-28 -29 -38 -31 -55 -10 -11 13 -14 13 -26 -2 -13 -17
-15 -17 -34 6 -14 16 -18 31 -14 50 12 55 13 56 42 28 28 -27 52 -35 52 -18 0
5 -9 13 -20 16 -11 4 -28 17 -36 31 -12 18 -24 23 -47 21 -40 -3 -51 28 -15
42 21 9 20 10 -11 10 -29 1 -33 -2 -28 -19 3 -11 1 -23 -4 -26 -15 -9 -10 -34
7 -34 13 0 15 -7 9 -36 -5 -29 -4 -36 8 -31 8 3 21 -7 32 -25 18 -31 18 -31
-4 -25 -11 3 -21 1 -21 -4 0 -4 -7 -6 -15 -3 -10 4 -15 0 -15 -14 0 -18 4 -20
30 -12 16 5 34 11 40 15 12 8 39 -6 38 -20 -3 -19 30 -16 36 3 8 24 45 35 63
20 22 -18 15 -46 -18 -69 l-32 -22 -17 21 c-15 18 -19 19 -24 6 -3 -8 -10 -12
-16 -9 -6 4 -5 -5 2 -20 9 -20 9 -31 0 -45 -17 -28 21 -63 60 -55 15 4 36 1
47 -5 18 -9 21 -8 21 7 0 14 7 11 29 -15 29 -33 54 -35 65 -6 3 9 2 12 -5 9
-20 -13 -59 6 -74 35 -8 16 -15 31 -15 33 0 10 61 -7 77 -22 10 -9 26 -20 36
-24 9 -3 17 -14 17 -24 0 -15 3 -14 16 5 18 25 11 44 -13 35 -11 -4 -14 -3 -9
5 4 7 1 15 -8 18 -20 8 -21 33 -2 40 18 7 106 -36 120 -59 13 -21 -9 -40 -36
-31 -10 3 -18 1 -18 -5 0 -6 -7 -11 -16 -11 -13 0 -12 -5 6 -30 23 -32 20 -60
-7 -91 -12 -15 -11 -17 9 -23 40 -10 56 -7 87 20 27 23 31 32 31 79 0 45 -4
58 -30 85 -16 18 -30 38 -30 46 0 9 -11 14 -29 14 -34 0 -61 9 -61 20 0 4 15
17 34 28 l34 20 23 -24 c13 -14 29 -22 35 -20 7 3 15 -3 17 -12 3 -9 6 1 7 23
5 68 -2 179 -11 195 -5 10 -8 11 -9 3 0 -7 -10 -13 -22 -12 -13 0 -17 3 -10 6
15 6 16 33 2 33 -6 0 -22 -8 -36 -17 -22 -14 -25 -21 -19 -50 5 -30 4 -33 -18
-33 -18 0 -28 8 -38 33 -16 41 -27 47 -56 36 -32 -12 -31 -12 -43 11 -15 28
14 39 40 15 18 -16 20 -17 20 -2 0 11 8 17 24 17 14 0 28 5 31 10 10 16 53 12
63 -6 7 -13 10 -13 21 -1 7 9 21 13 33 9 17 -4 20 -2 15 12 -4 10 -7 24 -7 31
0 20 -23 24 -48 7z m-238 -68 c9 -3 16 -10 16 -14 0 -10 -38 -1 -46 11 -6 10
7 12 30 3z m276 -83 c11 -21 14 -48 4 -38 -3 3 -18 1 -32 -4 -29 -11 -49 2
-36 23 5 7 9 16 10 21 1 4 2 9 3 12 3 13 42 3 51 -14z m-76 -73 c8 -14 6 -20
-8 -31 -33 -24 -85 4 -72 39 8 21 65 15 80 -8z m-98 -34 c-3 -9 -6 -23 -6 -32
0 -15 -2 -15 -15 -1 -18 18 -10 49 12 49 10 0 13 -6 9 -16z m-10 -101 c-11
-11 -19 6 -11 24 8 17 8 17 12 0 3 -10 2 -21 -1 -24z m194 -152 c0 -20 -24
-51 -39 -51 -17 0 -30 27 -24 48 7 30 63 32 63 3z m-75 -51 c3 -5 1 -10 -4
-10 -6 0 -11 5 -11 10 0 6 2 10 4 10 3 0 8 -4 11 -10z"/>
<path d="M580 766 c0 -2 7 -9 15 -16 13 -11 14 -10 9 4 -5 14 -24 23 -24 12z"/>
<path d="M1758 913 c7 -3 16 -2 19 1 4 3 -2 6 -13 5 -11 0 -14 -3 -6 -6z"/>
<path d="M1800 910 c0 -5 5 -10 10 -10 6 0 10 -8 11 -17 0 -10 3 -13 5 -6 3 7
12 9 20 6 9 -3 14 2 14 16 0 17 -6 21 -30 21 -16 0 -30 -4 -30 -10z"/>
<path d="M1875 901 c-8 -25 -2 -34 23 -37 9 -1 25 -5 35 -9 10 -4 17 -3 17 5
0 6 -4 9 -9 5 -5 -3 -21 9 -34 26 -24 31 -25 31 -32 10z"/>
<path d="M1910 910 c0 -6 11 -8 28 -4 39 10 40 14 4 14 -18 0 -32 -5 -32 -10z"/>
<path d="M1720 899 c0 -5 5 -7 10 -4 6 3 10 8 10 11 0 2 -4 4 -10 4 -5 0 -10
-5 -10 -11z"/>
<path d="M1993 893 c-25 -9 -13 -23 15 -17 37 9 52 24 22 23 -14 0 -31 -3 -37
-6z"/>
<path d="M2080 891 c0 -3 15 -13 32 -21 18 -8 34 -22 37 -30 4 -13 2 -13 -14
0 -17 14 -18 13 -11 -5 4 -11 10 -33 13 -49 l6 -28 -49 5 c-27 3 -65 8 -84 11
-34 6 -34 6 10 -15 25 -12 56 -21 69 -20 22 3 23 0 17 -37 -4 -29 -2 -43 9
-52 8 -7 15 -26 15 -42 0 -28 -2 -30 -30 -26 -29 4 -30 3 -26 -23 5 -35 -10
-42 -93 -39 -47 1 -69 6 -84 21 -13 11 -37 20 -61 21 -55 2 -59 2 -75 12 -8 5
-16 4 -20 -1 -3 -6 -22 -14 -41 -18 l-35 -8 30 -9 c17 -5 64 -7 105 -4 42 3
82 1 90 -4 12 -8 9 -10 -12 -10 -16 0 -28 -5 -28 -11 0 -6 -9 -8 -22 -3 -25 8
-41 8 -135 -1 l-63 -7 0 -34 c0 -33 16 -47 25 -21 3 6 21 12 40 13 24 0 32 -3
25 -10 -19 -19 -10 -24 43 -23 28 0 63 -3 77 -7 20 -5 32 -1 53 18 16 14 22
26 15 28 -8 3 -7 6 3 10 10 4 15 -1 16 -13 1 -11 -5 -19 -13 -19 -8 0 -14 -4
-14 -10 0 -5 11 -10 25 -10 15 0 40 -7 57 -16 27 -14 35 -14 52 -4 20 13 56
20 103 22 29 0 29 7 23 258 l-5 214 -37 1 c-21 1 -38 -1 -38 -4z m35 -418 c5
-18 2 -23 -13 -23 -18 0 -25 20 -16 49 6 17 19 5 29 -26z m-230 -2 c-5 -18 -8
-19 -21 -7 -18 19 -18 24 4 28 23 6 25 3 17 -21z m140 5 c16 -16 10 -26 -17
-26 -20 0 -21 1 -12 24 8 20 12 20 29 2z m-192 -7 c-6 -6 -27 -14 -47 -19 -32
-7 -35 -6 -26 9 6 12 22 18 46 19 26 1 34 -2 27 -9z"/>
<path d="M1590 848 c0 -7 7 -26 15 -42 8 -15 15 -51 15 -80 0 -28 3 -75 6
-103 6 -50 8 -53 35 -53 15 0 31 5 34 10 3 6 1 10 -4 10 -6 0 -11 18 -11 39 0
31 4 41 20 46 17 5 26 25 18 39 -5 8 50 46 65 46 9 0 17 4 19 10 2 5 18 13 37
16 20 4 32 3 28 -2 -3 -5 4 -21 15 -34 13 -17 18 -19 14 -7 -5 15 -3 16 15 6
17 -9 21 -7 26 10 3 12 13 21 22 22 10 0 7 4 -9 10 -36 15 -159 5 -196 -17
-39 -22 -67 -13 -58 20 5 21 1 25 -33 36 -21 7 -42 16 -47 21 -14 13 -26 11
-26 -3z m100 -48 c0 -12 -8 -12 -35 0 -18 8 -17 9 8 9 15 1 27 -3 27 -9z m-16
-65 c9 -13 16 -29 16 -35 0 -20 -20 -6 -41 28 -17 26 -18 32 -6 32 8 0 22 -11
31 -25z"/>
<path d="M1827 763 c-4 -3 -7 -11 -7 -17 0 -6 5 -5 12 2 6 6 9 14 7 17 -3 3
-9 2 -12 -2z"/>
<path d="M1752 704 c9 -8 107 -11 102 -2 -3 5 -28 8 -56 8 -28 0 -49 -3 -46
-6z"/>
<path d="M1990 680 c-18 -5 -21 -9 -10 -13 52 -19 77 -23 95 -16 18 7 17 8 -7
8 -29 1 -46 16 -26 24 20 8 -24 6 -52 -3z"/>
<path d="M191 635 c-17 -10 -30 -11 -43 -4 -13 7 -18 6 -18 -3 1 -42 42 -47
70 -8 12 16 20 30 18 29 -2 -1 -14 -7 -27 -14z"/>
<path d="M1885 590 c-3 -5 -1 -10 4 -10 6 0 11 5 11 10 0 6 -2 10 -4 10 -3 0
-8 -4 -11 -10z"/>
<path d="M141 504 c0 -11 3 -14 6 -6 3 7 2 16 -1 19 -3 4 -6 -2 -5 -13z"/>
<path d="M170 515 c-1 -5 -2 -26 -1 -45 0 -19 -2 -29 -5 -22 -8 17 -24 5 -18
-13 5 -11 11 -12 24 -5 10 6 23 10 29 10 14 0 14 -57 1 -65 -5 -3 -10 -1 -10
5 0 6 -4 8 -10 5 -5 -3 -10 2 -10 11 0 14 -3 15 -12 6 -17 -17 5 -60 38 -72
33 -13 81 -13 89 0 3 6 0 10 -8 10 -26 0 -42 29 -29 51 10 15 10 19 0 17 -6
-2 -14 5 -16 15 -5 22 20 22 53 1 14 -9 25 -14 25 -10 0 10 -39 46 -50 46 -5
0 -14 8 -19 18 -10 16 -10 16 -11 0 0 -32 -33 -17 -49 22 -5 14 -10 21 -11 15z"/>
<path d="M482 424 c-5 -9 -7 -25 -4 -36 3 -11 -3 -25 -14 -33 -18 -14 -17 -14
8 -15 25 0 27 3 22 29 -3 16 -1 38 5 50 14 25 -3 30 -17 5z"/>
<path d="M1678 433 c7 -3 16 -2 19 1 4 3 -2 6 -13 5 -11 0 -14 -3 -6 -6z"/>
<path d="M376 384 c-4 -10 -13 -14 -26 -11 -11 3 -18 1 -14 -4 3 -5 11 -9 18
-9 15 0 41 28 34 36 -3 3 -8 -3 -12 -12z"/>
<path d="M894 362 c10 -17 75 -27 89 -13 8 8 3 11 -18 11 -17 0 -41 3 -54 7
-17 4 -22 3 -17 -5z"/>
<path d="M2020 355 c0 -8 5 -15 10 -15 6 0 10 7 10 15 0 8 -4 15 -10 15 -5 0
-10 -7 -10 -15z"/>
<path d="M380 350 c-12 -8 -9 -10 13 -10 16 0 26 4 22 10 -8 12 -16 12 -35 0z"/>
<path d="M850 350 c0 -5 10 -20 23 -34 27 -31 77 -41 122 -25 25 9 54 9 126 0
151 -20 176 -19 201 8 19 20 20 23 5 17 -46 -16 -97 -18 -113 -5 -21 17 -204
26 -204 10 0 -22 -85 -12 -124 14 -20 13 -36 20 -36 15z"/>
<path d="M1643 318 c14 -55 44 -73 105 -62 26 4 109 8 185 8 133 1 139 2 158
25 28 35 24 40 -27 29 -35 -8 -48 -7 -54 2 -10 16 -196 6 -217 -11 -18 -16
-86 -2 -126 26 l-34 23 10 -40z"/>
<path d="M605 310 c-11 -4 -82 -5 -157 -2 -101 4 -138 2 -138 -6 0 -7 -15 -12
-35 -12 -19 0 -35 -5 -35 -11 0 -7 16 -9 48 -5 76 9 174 10 214 2 40 -9 99 6
118 30 14 16 13 16 -15 4z"/>
</g>
</svg>
